<?xml version="1.0" standalone="no"?>
<!DOCTYPE svg PUBLIC "-//W3C//DTD SVG 20010904//EN"
 "http://www.w3.org/TR/2001/REC-SVG-20010904/DTD/svg10.dtd">
<svg version="1.0" xmlns="http://www.w3.org/2000/svg"
 width="1226.000000pt" height="1246.000000pt" viewBox="0 0 1226.000000 1246.000000"
 preserveAspectRatio="xMidYMid meet">
<metadata>
Created by potrace 1.16, written by Peter Selinger 2001-2019
</metadata>
<g transform="translate(0.000000,1246.000000) scale(0.100000,-0.100000)"
fill="#f4f4f4" stroke="none">
<path d="M4393 9808 c-939 -882 -2312 -2169 -3051 -2861 l-1342 -1259 0 -49 0
-49 725 0 725 0 0 -2530 0 -2530 1745 0 1745 0 0 1945 0 1945 1170 0 1170 0 0
-1945 0 -1945 1745 0 1745 0 0 2530 0 2530 745 0 745 0 0 33 c0 30 -93 127
-1130 1177 l-1129 1145 -1 1543 0 1542 -970 0 -970 0 -2 -711 -3 -712 -969
902 c-532 495 -972 901 -976 901 -5 0 -777 -721 -1717 -1602z"/>
</g>
</svg>
