<?xml version="1.0" standalone="no"?>
<!DOCTYPE svg PUBLIC "-//W3C//DTD SVG 20010904//EN"
 "http://www.w3.org/TR/2001/REC-SVG-20010904/DTD/svg10.dtd">
<svg version="1.0" xmlns="http://www.w3.org/2000/svg"
 width="280.000000pt" height="280.000000pt" viewBox="0 0 280.000000 280.000000"
 preserveAspectRatio="xMidYMid meet">
<metadata>
Created by potrace 1.16, written by Peter Selinger 2001-2019
</metadata>
<g transform="translate(0.000000,280.000000) scale(0.100000,-0.100000)"
fill="#fa8907" stroke="none">
<path d="M1205 2686 c-298 -50 -537 -175 -741 -388 -176 -184 -286 -393 -341
-648 -25 -119 -25 -381 0 -500 59 -274 185 -502 386 -692 182 -173 387 -281
641 -335 119 -25 381 -25 500 0 447 96 798 391 963 812 61 154 82 275 82 465
0 234 -34 379 -136 585 -171 347 -508 605 -899 690 -103 22 -353 28 -455 11z
m525 -859 l-230 -427 230 -427 c126 -235 230 -428 230 -431 0 -2 -15 5 -32 16
-18 11 -235 142 -483 292 -798 483 -895 543 -895 550 0 7 102 69 895 550 248
149 463 280 480 290 16 11 31 18 32 16 2 -1 -101 -194 -227 -429z"/>
</g>
</svg>
