<?xml version="1.0" standalone="no"?>
<!DOCTYPE svg PUBLIC "-//W3C//DTD SVG 20010904//EN"
 "http://www.w3.org/TR/2001/REC-SVG-20010904/DTD/svg10.dtd">
<svg version="1.0" xmlns="http://www.w3.org/2000/svg"
 width="392.000000pt" height="275.000000pt" viewBox="0 0 392.000000 275.000000"
 preserveAspectRatio="xMidYMid meet">
<metadata>
Created by potrace 1.16, written by Peter Selinger 2001-2019
</metadata>
<g transform="translate(0.000000,275.000000) scale(0.100000,-0.100000)"
fill="#000000" stroke="none">
<path d="M955 2451 c-78 -23 -121 -43 -231 -112 -50 -32 -113 -68 -140 -80
-170 -78 -307 -232 -364 -408 -38 -118 -43 -179 -44 -486 -1 -352 6 -401 84
-560 96 -195 249 -339 440 -415 139 -55 106 -53 824 -57 777 -5 740 -8 838 87
48 47 59 65 78 128 24 78 22 134 -6 201 -21 51 -17 64 26 84 52 24 113 87 141
145 29 61 32 190 5 240 -22 43 -17 56 36 80 103 46 172 158 172 277 0 41 -7
85 -16 107 -9 20 -14 39 -10 42 3 3 156 6 341 6 334 0 377 4 450 37 51 23 120
91 144 142 26 56 34 173 17 228 -29 87 -110 169 -197 200 -30 10 -233 13
-1021 13 -814 0 -988 2 -1010 14 -48 24 -205 75 -280 91 -95 19 -202 18 -277
-4z m305 -157 c87 -23 203 -72 230 -97 14 -12 77 -68 140 -123 217 -192 320
-318 320 -393 0 -42 -38 -107 -80 -135 -30 -20 -52 -26 -92 -26 -71 0 -123 31
-243 147 -119 116 -225 173 -322 173 -33 0 -46 -5 -62 -26 -44 -56 -12 -101
94 -134 80 -25 116 -50 199 -137 32 -35 74 -72 92 -84 44 -27 43 -45 -2 -53
-45 -9 -100 -39 -142 -79 -112 -106 -123 -285 -27 -411 14 -18 25 -36 25 -40
0 -3 -14 -25 -31 -49 -39 -54 -55 -92 -63 -153 -6 -44 -3 -74 20 -166 l6 -28
-198 0 c-132 1 -218 5 -254 14 -225 55 -390 191 -485 399 -54 119 -60 171 -60
477 1 318 11 385 75 517 49 100 122 170 236 228 44 21 115 62 159 90 100 64
167 95 225 105 57 11 169 3 240 -16z m2243 -103 c114 -44 130 -208 27 -278
l-33 -23 -736 0 -736 0 -68 78 c-38 42 -101 106 -142 142 -40 36 -74 71 -74
78 -1 9 179 12 868 12 514 0 880 -4 894 -9z m-915 -481 c37 -23 69 -71 78
-116 7 -39 -22 -109 -60 -144 l-28 -25 -299 -5 c-169 -3 -299 -1 -299 4 0 5
16 27 36 49 48 53 73 113 81 192 l6 65 226 0 c208 0 229 -2 259 -20z m-175
-481 c39 -32 67 -84 67 -124 0 -33 -25 -87 -52 -112 -50 -47 -77 -50 -468 -46
-201 2 -379 6 -396 8 -44 7 -101 68 -109 116 -12 72 14 136 70 170 28 18 58
19 440 19 l410 0 38 -31z m-222 -440 c100 -34 142 -155 84 -241 -45 -67 -51
-68 -402 -68 -336 0 -343 1 -389 52 -73 79 -41 208 63 254 38 17 595 19 644 3z"/>
</g>
</svg>
