<?xml version="1.0" standalone="no"?>
<!DOCTYPE svg PUBLIC "-//W3C//DTD SVG 20010904//EN"
 "http://www.w3.org/TR/2001/REC-SVG-20010904/DTD/svg10.dtd">
<svg version="1.0" xmlns="http://www.w3.org/2000/svg"
 width="32.000000pt" height="32.000000pt" viewBox="0 0 32.000000 32.000000"
 preserveAspectRatio="xMidYMid meet">
<metadata>
Created by potrace 1.16, written by Peter Selinger 2001-2019
</metadata>
<g transform="translate(0.000000,32.000000) scale(0.100000,-0.100000)"
fill="#000000" stroke="none">
<path d="M47 222 c-26 -26 -47 -54 -47 -63 0 -8 22 -36 48 -62 43 -43 52 -47
95 -47 59 0 60 11 5 67 l-42 43 42 43 c55 56 54 67 -6 67 -44 0 -52 -4 -95
-48z"/>
<path d="M177 222 c-26 -26 -47 -54 -47 -63 0 -8 22 -36 48 -62 43 -43 52 -47
95 -47 59 0 60 11 5 67 l-42 43 42 43 c55 56 54 67 -6 67 -44 0 -52 -4 -95
-48z"/>
</g>
</svg>
