<?xml version="1.0" standalone="no"?>
<!DOCTYPE svg PUBLIC "-//W3C//DTD SVG 20010904//EN"
 "http://www.w3.org/TR/2001/REC-SVG-20010904/DTD/svg10.dtd">
<svg version="1.0" xmlns="http://www.w3.org/2000/svg"
 width="392.000000pt" height="276.000000pt" viewBox="0 0 392.000000 276.000000"
 preserveAspectRatio="xMidYMid meet">
<metadata>
Created by potrace 1.16, written by Peter Selinger 2001-2019
</metadata>
<g transform="translate(0.000000,276.000000) scale(0.100000,-0.100000)"
fill="#000000" stroke="none">
<path d="M2665 2460 c-77 -18 -221 -67 -263 -89 -15 -8 -309 -11 -1004 -11
-788 0 -991 -3 -1021 -13 -87 -31 -168 -113 -197 -200 -17 -55 -9 -172 17
-228 24 -51 93 -119 144 -142 73 -33 116 -37 450 -37 185 0 338 -3 341 -6 4
-3 -1 -22 -10 -42 -9 -22 -16 -66 -16 -107 0 -119 69 -231 172 -277 53 -24 58
-37 36 -80 -27 -50 -24 -179 5 -240 28 -58 89 -121 141 -145 43 -20 47 -33 26
-84 -28 -67 -30 -123 -6 -201 19 -63 30 -81 78 -128 98 -95 61 -92 838 -87
718 4 685 2 824 57 191 76 344 220 440 415 78 159 85 208 84 560 -1 307 -6
368 -44 486 -57 176 -194 330 -364 408 -27 12 -90 48 -140 80 -50 31 -112 66
-137 78 -117 55 -250 66 -394 33z m226 -139 c68 -11 129 -39 234 -106 44 -28
115 -69 159 -90 114 -58 187 -128 236 -228 64 -132 74 -199 75 -517 0 -306 -6
-358 -60 -477 -95 -208 -260 -344 -485 -399 -36 -9 -122 -13 -254 -14 l-198 0
6 28 c23 92 26 122 20 166 -8 61 -24 99 -63 153 -17 24 -31 46 -31 49 0 4 11
22 25 40 96 126 85 305 -27 411 -42 40 -97 70 -142 79 -45 8 -46 26 -2 53 18
12 60 49 92 84 83 87 119 112 199 137 106 33 138 78 94 134 -16 21 -29 26 -62
26 -97 0 -203 -57 -322 -173 -120 -116 -172 -147 -243 -147 -40 0 -62 6 -92
26 -42 28 -80 93 -80 135 0 75 103 201 320 393 63 55 124 109 135 120 42 39
217 104 315 116 81 11 90 11 151 1z m-712 -123 c0 -7 -34 -42 -74 -78 -41 -36
-104 -100 -142 -142 l-68 -78 -736 0 -736 0 -33 23 c-78 53 -94 165 -33 234
49 55 7 53 951 53 691 0 872 -3 871 -12z m-356 -523 c8 -79 33 -139 81 -192
20 -22 36 -44 36 -49 0 -5 -130 -7 -299 -4 l-299 5 -28 25 c-38 35 -67 105
-60 144 9 45 41 93 78 116 30 18 51 20 259 20 l226 0 6 -65z m567 -420 c57
-29 88 -101 75 -174 -8 -48 -65 -109 -109 -116 -17 -2 -195 -6 -396 -8 -391
-4 -418 -1 -468 46 -27 25 -52 79 -52 112 0 40 28 92 67 124 l38 31 408 0
c341 0 413 -2 437 -15z m-18 -459 c130 -55 140 -228 16 -292 -42 -22 -642 -20
-687 2 -94 47 -110 187 -29 260 42 39 74 42 374 43 231 1 299 -2 326 -13z"/>
</g>
</svg>
