<?xml version="1.0" standalone="no"?>
<!DOCTYPE svg PUBLIC "-//W3C//DTD SVG 20010904//EN"
 "http://www.w3.org/TR/2001/REC-SVG-20010904/DTD/svg10.dtd">
<svg version="1.0" xmlns="http://www.w3.org/2000/svg"
 width="1235.000000pt" height="1133.000000pt" viewBox="0 0 1235.000000 1133.000000"
 preserveAspectRatio="xMidYMid meet">
<metadata>
Created by potrace 1.16, written by Peter Selinger 2001-2019
</metadata>
<g transform="translate(0.000000,1133.000000) scale(0.100000,-0.100000)"
fill="
" stroke="none">
<path d="M4075 10630 c-320 -36 -561 -104 -841 -239 -452 -218 -823 -561
-1073 -991 -150 -259 -258 -569 -307 -875 -22 -141 -30 -463 -15 -610 80 -786
505 -1467 1174 -1881 294 -182 648 -306 997 -350 147 -18 463 -18 610 0 566
71 1077 327 1477 739 363 374 584 813 675 1342 19 110 22 168 23 380 0 214 -3
271 -23 392 -50 311 -167 636 -317 883 -297 490 -714 842 -1249 1055 -137 55
-369 115 -536 140 -133 20 -475 28 -595 15z"/>
<path d="M11248 6280 c-97 -12 -171 -36 -273 -88 -87 -44 -101 -57 -423 -376
l-332 -331 690 -690 691 -690 308 310 c304 307 369 383 417 491 23 53 24 61
24 324 0 263 -1 271 -24 324 -44 100 -102 169 -322 386 -201 197 -226 219
-304 258 -140 70 -305 100 -452 82z"/>
<path d="M8484 3752 c-1249 -1255 -1292 -1300 -1328 -1373 -31 -62 -67 -192
-198 -715 -175 -701 -174 -694 -126 -794 28 -58 98 -127 153 -151 102 -45 102
-45 785 126 668 166 710 180 825 268 33 25 622 611 1309 1302 l1249 1257 -689
689 -689 689 -1291 -1298z"/>
<path d="M3120 4720 c-474 -41 -1018 -212 -1417 -445 -817 -479 -1396 -1236
-1628 -2130 -73 -280 -75 -303 -75 -724 l0 -373 32 -61 c38 -70 137 -174 205
-213 25 -15 75 -39 112 -53 l66 -26 2909 -3 2908 -2 -6 22 c-35 122 -40 161
-39 298 l0 145 167 665 c199 790 210 822 364 1030 31 41 243 263 471 493 l415
418 -78 72 c-464 424 -1064 722 -1696 842 -260 49 -234 48 -1460 50 -635 2
-1198 -1 -1250 -5z"/>
</g>
</svg>
